# This file uses centimeters as units for non-parametric coordinates.

mtllib lv 3 golf.mtl
g default
v -13.759883 0.000000 0.312608
v -13.759883 0.129784 0.442392
v -13.889668 0.129784 0.312608
v 0.736311 0.129784 0.312608
v 0.606527 0.129784 0.442392
v 0.606527 0.000000 0.312608
v -13.889668 0.389405 0.312608
v -13.759883 0.389405 0.442392
v -13.759883 0.519189 0.312608
v 0.606527 0.519189 0.312608
v 0.606527 0.389405 0.442392
v 0.736311 0.389405 0.312608
v -13.889668 0.389405 -11.242019
v -13.759883 0.519189 -11.242019
v -13.759883 0.389405 -11.371803
v 0.606527 0.389405 -11.371803
v 0.606527 0.519189 -11.242019
v 0.736311 0.389405 -11.242019
v -13.889668 0.129784 -11.242019
v -13.759883 0.129784 -11.371803
v -13.759883 0.000000 -11.242019
v 0.606527 0.000000 -11.242019
v 0.606527 0.129784 -11.371803
v 0.736311 0.129784 -11.242019
vt 0.377218 0.997254
vt 0.375000 0.997254
vt 0.375000 0.752746
vt 0.377218 0.000000
vt 0.377218 0.062494
vt 0.625000 0.997254
vt 0.622782 0.997254
vt 0.625000 0.752746
vt 0.627746 0.062494
vt 0.375000 0.252746
vt 0.375000 0.497254
vt 0.377218 0.187506
vt 0.622782 0.187506
vt 0.625000 0.252746
vt 0.375000 0.562494
vt 0.375000 0.687506
vt 0.377218 0.497254
vt 0.622782 0.497254
vt 0.625000 0.562494
vt 0.625000 0.687506
vt 0.377218 0.687506
vt 0.622782 0.687506
vt 0.622782 0.752746
vt 0.622782 0.062494
vt 0.377218 0.252746
vt 0.622782 0.252746
vt 0.377218 0.562494
vt 0.622782 0.562494
vt 0.377218 0.752746
vt 0.872254 0.062494
vt 0.872254 0.187506
vt 0.127746 0.062494
vt 0.372254 0.062494
vt 0.372254 0.187506
vt 0.127746 0.187506
vt 0.622782 0.000000
vt 0.627746 0.187506
vt 0.625000 0.497254
vn -0.707106 -0.707107 0.000000
vn -0.707106 -0.707107 0.000000
vn -0.707106 -0.707107 0.000000
vn -0.707106 -0.707107 0.000000
vn 0.000000 -0.707106 0.707107
vn 0.000000 -0.707106 0.707107
vn 0.000000 -0.707106 0.707107
vn 0.000000 -0.707106 0.707107
vn -0.707104 0.000000 0.707109
vn -0.707104 0.000000 0.707109
vn -0.707104 0.000000 0.707109
vn -0.707104 0.000000 0.707109
vn 0.707108 -0.707105 0.000000
vn 0.707108 -0.707105 0.000000
vn 0.707108 -0.707105 0.000000
vn 0.707108 -0.707105 0.000000
vn 0.707106 0.000000 0.707108
vn 0.707106 0.000000 0.707108
vn 0.707106 0.000000 0.707108
vn 0.707106 0.000000 0.707108
vn -0.707106 0.707107 0.000000
vn -0.707106 0.707107 0.000000
vn -0.707106 0.707107 0.000000
vn -0.707106 0.707107 0.000000
vn 0.000000 0.707106 0.707107
vn 0.000000 0.707106 0.707107
vn 0.000000 0.707106 0.707107
vn 0.000000 0.707106 0.707107
vn 0.707108 0.707105 0.000000
vn 0.707108 0.707105 0.000000
vn 0.707108 0.707105 0.000000
vn 0.707108 0.707105 0.000000
vn -0.707107 0.000000 -0.707107
vn -0.707107 0.000000 -0.707107
vn -0.707107 0.000000 -0.707107
vn -0.707107 0.000000 -0.707107
vn 0.000000 0.707108 -0.707106
vn 0.000000 0.707108 -0.707106
vn 0.000000 0.707108 -0.707106
vn 0.000000 0.707108 -0.707106
vn 0.707108 0.000000 -0.707105
vn 0.707108 0.000000 -0.707105
vn 0.707108 0.000000 -0.707105
vn 0.707108 0.000000 -0.707105
vn 0.000000 -0.707108 -0.707106
vn 0.000000 -0.707108 -0.707106
vn 0.000000 -0.707108 -0.707106
vn 0.000000 -0.707108 -0.707106
vn 0.000000 0.000000 1.000000
vn 0.000000 0.000000 1.000000
vn 0.000000 0.000000 1.000000
vn 0.000000 0.000000 1.000000
vn 0.000000 1.000000 0.000000
vn 0.000000 1.000000 0.000000
vn 0.000000 1.000000 0.000000
vn 0.000000 1.000000 0.000000
vn 0.000000 0.000000 -1.000000
vn 0.000000 0.000000 -1.000000
vn 0.000000 0.000000 -1.000000
vn 0.000000 0.000000 -1.000000
vn 0.000000 -1.000000 0.000000
vn 0.000000 -1.000000 0.000000
vn 0.000000 -1.000000 0.000000
vn 0.000000 -1.000000 0.000000
vn 1.000000 0.000000 0.000000
vn 1.000000 0.000000 0.000000
vn 1.000000 0.000000 0.000000
vn 1.000000 0.000000 0.000000
vn -1.000000 0.000000 0.000000
vn -1.000000 0.000000 0.000000
vn -1.000000 0.000000 0.000000
vn -1.000000 0.000000 0.000000
vn -0.577349 -0.577349 0.577352
vn -0.577349 -0.577349 0.577352
vn -0.577349 -0.577349 0.577352
vn 0.577350 -0.577350 0.577351
vn 0.577350 -0.577350 0.577351
vn 0.577350 -0.577350 0.577351
vn -0.577347 0.577351 0.577354
vn -0.577347 0.577351 0.577354
vn -0.577347 0.577351 0.577354
vn 0.577347 0.577351 0.577352
vn 0.577347 0.577351 0.577352
vn 0.577347 0.577351 0.577352
vn -0.577348 0.577352 -0.577351
vn -0.577348 0.577352 -0.577351
vn -0.577348 0.577352 -0.577351
vn 0.577349 0.577353 -0.577349
vn 0.577349 0.577353 -0.577349
vn 0.577349 0.577353 -0.577349
vn -0.577351 -0.577351 -0.577350
vn -0.577351 -0.577351 -0.577350
vn -0.577351 -0.577351 -0.577350
vn 0.577351 -0.577351 -0.577348
vn 0.577351 -0.577351 -0.577348
vn 0.577351 -0.577351 -0.577348
s off
g pCube1
usemtl initialShadingGroup
f 1/1/1 3/2/2 19/3/3 21/29/4
f 2/5/5 1/4/6 6/36/7 5/24/8
f 3/33/9 2/5/10 8/12/11 7/34/12
f 4/6/13 6/7/14 22/23/15 24/8/16
f 5/24/17 4/9/18 12/37/19 11/13/20
f 7/10/21 9/25/22 14/17/23 13/11/24
f 9/25/25 8/12/26 11/13/27 10/26/28
f 10/26/29 12/14/30 18/38/31 17/18/32
f 13/15/33 15/27/34 20/21/35 19/16/36
f 15/27/37 14/17/38 17/18/39 16/28/40
f 16/28/41 18/19/42 24/20/43 23/22/44
f 21/29/45 20/21/46 23/22/47 22/23/48
f 2/5/49 5/24/50 11/13/51 8/12/52
f 9/25/53 10/26/54 17/18/55 14/17/56
f 15/27/57 16/28/58 23/22/59 20/21/60
f 21/29/61 22/23/62 6/7/63 1/1/64
f 4/9/65 24/30/66 18/31/67 12/37/68
f 19/32/69 3/33/70 7/34/71 13/35/72
f 1/4/73 2/5/74 3/33/75
f 4/9/76 5/24/77 6/36/78
f 7/34/79 8/12/80 9/25/81
f 10/26/82 11/13/83 12/37/84
f 13/11/85 14/17/86 15/27/87
f 16/28/88 17/18/89 18/38/90
f 19/16/91 20/21/92 21/29/93
f 22/23/94 23/22/95 24/20/96
