# Blender v2.90.1 OBJ File: 'candy.blend'
# www.blender.org
mtllib candy.mtl
o Cylinder.001
v 0.000000 6.488199 -0.510054
v 0.000000 6.488199 0.510053
v 0.490626 6.439877 -0.510054
v 0.490626 6.439877 0.510053
v 0.962397 6.296767 -0.510054
v 0.962397 6.296767 0.510053
v 1.397184 6.064368 -0.510054
v 1.397184 6.064368 0.510053
v 1.778278 5.751613 -0.510054
v 1.778278 5.751613 0.510053
v 2.091034 5.370519 -0.510054
v 2.091034 5.370519 0.510053
v 2.323432 4.935732 -0.510054
v 2.323432 4.935732 0.510053
v 2.466542 4.463961 -0.510054
v 2.466542 4.463961 0.510053
v 2.514865 3.973335 -0.510053
v 2.514865 3.973335 0.510053
v 2.466542 3.482709 -0.510053
v 2.466542 3.482709 0.510054
v 2.323432 3.010938 -0.510053
v 2.323432 3.010938 0.510054
v 2.091034 2.576151 -0.510053
v 2.091034 2.576151 0.510054
v 1.778278 2.195057 -0.510053
v 1.778278 2.195057 0.510054
v 1.397184 1.882301 -0.510053
v 1.397184 1.882301 0.510054
v 0.962397 1.649903 -0.510053
v 0.962397 1.649903 0.510054
v 0.490625 1.506793 -0.510053
v 0.490625 1.506793 0.510054
v -0.000001 1.458470 -0.510053
v -0.000001 1.458470 0.510054
v -0.490627 1.506793 -0.510053
v -0.490627 1.506793 0.510054
v -0.962398 1.649903 -0.510053
v -0.962398 1.649903 0.510054
v -1.397185 1.882302 -0.510053
v -1.397185 1.882302 0.510054
v -1.778279 2.195058 -0.510053
v -1.778279 2.195058 0.510054
v -2.091035 2.576152 -0.510053
v -2.091035 2.576152 0.510054
v -2.323433 3.010940 -0.510053
v -2.323433 3.010940 0.510054
v -2.466543 3.482711 -0.510053
v -2.466543 3.482711 0.510054
v -2.514865 3.973337 -0.510053
v -2.514865 3.973337 0.510053
v -2.466542 4.463963 -0.510054
v -2.466542 4.463963 0.510053
v -2.323431 4.935734 -0.510054
v -2.323431 4.935735 0.510053
v -2.091032 5.370522 -0.510054
v -2.091032 5.370522 0.510053
v -1.778276 5.751615 -0.510054
v -1.778276 5.751615 0.510053
v -1.397181 6.064370 -0.510054
v -1.397181 6.064370 0.510053
v -0.962394 6.296768 -0.510054
v -0.962394 6.296768 0.510053
v -0.490622 6.439878 -0.510054
v -0.490622 6.439878 0.510053
vt 0.456071 0.573432
vt 0.456071 0.573432
vt 0.483381 0.569398
vt 0.483381 0.569398
vt 0.509643 0.557448
vt 0.509643 0.557448
vt 0.533845 0.538043
vt 0.533845 0.538043
vt 0.555059 0.511929
vt 0.555059 0.511929
vt 0.572468 0.480109
vt 0.572468 0.480109
vt 0.585405 0.443805
vt 0.585405 0.443805
vt 0.593371 0.404413
vt 0.593371 0.404413
vt 0.596061 0.363447
vt 0.596061 0.363447
vt 0.593371 0.322481
vt 0.593371 0.322481
vt 0.585405 0.283089
vt 0.585405 0.283089
vt 0.572468 0.246785
vt 0.572468 0.246785
vt 0.555059 0.214965
vt 0.555059 0.214965
vt 0.533845 0.188850
vt 0.533845 0.188850
vt 0.509643 0.169446
vt 0.509643 0.169446
vt 0.483381 0.157496
vt 0.483381 0.157496
vt 0.456071 0.153461
vt 0.456071 0.153461
vt 0.428760 0.157496
vt 0.428760 0.157496
vt 0.402499 0.169446
vt 0.402499 0.169446
vt 0.378296 0.188850
vt 0.378296 0.188850
vt 0.357082 0.214965
vt 0.357082 0.214965
vt 0.339673 0.246785
vt 0.339673 0.246785
vt 0.326736 0.283089
vt 0.326736 0.283089
vt 0.318770 0.322481
vt 0.318770 0.322481
vt 0.316080 0.363447
vt 0.316080 0.363447
vt 0.318770 0.404413
vt 0.318770 0.404413
vt 0.326736 0.443805
vt 0.326736 0.443805
vt 0.339673 0.480109
vt 0.339673 0.480109
vt 0.357083 0.511929
vt 0.357083 0.511929
vt 0.378296 0.538044
vt 0.378296 0.538044
vt 0.402499 0.557448
vt 0.402499 0.557448
vt 0.428760 0.569398
vt 0.428760 0.569398
vn 0.0980 0.9952 0.0000
vn 0.2903 0.9569 0.0000
vn 0.4714 0.8819 0.0000
vn 0.6344 0.7730 0.0000
vn 0.7730 0.6344 0.0000
vn 0.8819 0.4714 0.0000
vn 0.9569 0.2903 0.0000
vn 0.9952 0.0980 0.0000
vn 0.9952 -0.0980 0.0000
vn 0.9569 -0.2903 0.0000
vn 0.8819 -0.4714 0.0000
vn 0.7730 -0.6344 0.0000
vn 0.6344 -0.7730 0.0000
vn 0.4714 -0.8819 0.0000
vn 0.2903 -0.9569 0.0000
vn 0.0980 -0.9952 0.0000
vn -0.0980 -0.9952 0.0000
vn -0.2903 -0.9569 0.0000
vn -0.4714 -0.8819 0.0000
vn -0.6344 -0.7730 0.0000
vn -0.7730 -0.6344 0.0000
vn -0.8819 -0.4714 0.0000
vn -0.9569 -0.2903 0.0000
vn -0.9952 -0.0980 0.0000
vn -0.9952 0.0980 0.0000
vn -0.9569 0.2903 -0.0000
vn -0.8819 0.4714 -0.0000
vn -0.7730 0.6344 0.0000
vn -0.6344 0.7730 0.0000
vn -0.4714 0.8819 0.0000
vn 0.0000 0.0000 1.0000
vn -0.0980 0.9952 0.0000
vn -0.2903 0.9569 0.0000
vn 0.0000 -0.0000 -1.0000
usemtl Material.001
s off
f 1/1/1 2/2/1 4/3/1 3/4/1
f 3/4/2 4/3/2 6/5/2 5/6/2
f 5/6/3 6/5/3 8/7/3 7/8/3
f 7/8/4 8/7/4 10/9/4 9/10/4
f 9/10/5 10/9/5 12/11/5 11/12/5
f 11/12/6 12/11/6 14/13/6 13/14/6
f 13/14/7 14/13/7 16/15/7 15/16/7
f 15/16/8 16/15/8 18/17/8 17/18/8
f 17/18/9 18/17/9 20/19/9 19/20/9
f 19/20/10 20/19/10 22/21/10 21/22/10
f 21/22/11 22/21/11 24/23/11 23/24/11
f 23/24/12 24/23/12 26/25/12 25/26/12
f 25/26/13 26/25/13 28/27/13 27/28/13
f 27/28/14 28/27/14 30/29/14 29/30/14
f 29/30/15 30/29/15 32/31/15 31/32/15
f 31/32/16 32/31/16 34/33/16 33/34/16
f 33/34/17 34/33/17 36/35/17 35/36/17
f 35/36/18 36/35/18 38/37/18 37/38/18
f 37/38/19 38/37/19 40/39/19 39/40/19
f 39/40/20 40/39/20 42/41/20 41/42/20
f 41/42/21 42/41/21 44/43/21 43/44/21
f 43/44/22 44/43/22 46/45/22 45/46/22
f 45/46/23 46/45/23 48/47/23 47/48/23
f 47/48/24 48/47/24 50/49/24 49/50/24
f 49/50/25 50/49/25 52/51/25 51/52/25
f 51/52/26 52/51/26 54/53/26 53/54/26
f 53/54/27 54/53/27 56/55/27 55/56/27
f 55/56/28 56/55/28 58/57/28 57/58/28
f 57/58/29 58/57/29 60/59/29 59/60/29
f 59/60/30 60/59/30 62/61/30 61/62/30
f 4/3/31 2/2/31 64/63/31 62/61/31 60/59/31 58/57/31 56/55/31 54/53/31 52/51/31 50/49/31 48/47/31 46/45/31 44/43/31 42/41/31 40/39/31 38/37/31 36/35/31 34/33/31 32/31/31 30/29/31 28/27/31 26/25/31 24/23/31 22/21/31 20/19/31 18/17/31 16/15/31 14/13/31 12/11/31 10/9/31 8/7/31 6/5/31
f 63/64/32 64/63/32 2/2/32 1/1/32
f 61/62/33 62/61/33 64/63/33 63/64/33
f 1/1/34 3/4/34 5/6/34 7/8/34 9/10/34 11/12/34 13/14/34 15/16/34 17/18/34 19/20/34 21/22/34 23/24/34 25/26/34 27/28/34 29/30/34 31/32/34 33/34/34 35/36/34 37/38/34 39/40/34 41/42/34 43/44/34 45/46/34 47/48/34 49/50/34 51/52/34 53/54/34 55/56/34 57/58/34 59/60/34 61/62/34 63/64/34
o Cylinder
v 0.000000 -4.088018 -0.091110
v 0.000000 4.088018 -0.091110
v 0.017775 -4.088018 -0.089359
v 0.017775 4.088018 -0.089359
v 0.034866 -4.088018 -0.084175
v 0.034866 4.088018 -0.084175
v 0.050618 -4.088018 -0.075755
v 0.050618 4.088018 -0.075755
v 0.064424 -4.088018 -0.064424
v 0.064424 4.088018 -0.064424
v 0.075755 -4.088018 -0.050618
v 0.075755 4.088018 -0.050618
v 0.084175 -4.088018 -0.034866
v 0.084175 4.088018 -0.034866
v 0.089359 -4.088018 -0.017775
v 0.089359 4.088018 -0.017775
v 0.091110 -4.088018 -0.000000
v 0.091110 4.088018 -0.000000
v 0.089359 -4.088018 0.017775
v 0.089359 4.088018 0.017775
v 0.084175 -4.088018 0.034866
v 0.084175 4.088018 0.034866
v 0.075755 -4.088018 0.050618
v 0.075755 4.088018 0.050618
v 0.064424 -4.088018 0.064424
v 0.064424 4.088018 0.064424
v 0.050618 -4.088018 0.075755
v 0.050618 4.088018 0.075755
v 0.034866 -4.088018 0.084175
v 0.034866 4.088018 0.084175
v 0.017775 -4.088018 0.089359
v 0.017775 4.088018 0.089359
v -0.000000 -4.088018 0.091110
v -0.000000 4.088018 0.091110
v -0.017775 -4.088018 0.089359
v -0.017775 4.088018 0.089359
v -0.034866 -4.088018 0.084175
v -0.034866 4.088018 0.084175
v -0.050618 -4.088018 0.075755
v -0.050618 4.088018 0.075755
v -0.064424 -4.088018 0.064424
v -0.064424 4.088018 0.064424
v -0.075755 -4.088018 0.050618
v -0.075755 4.088018 0.050618
v -0.084175 -4.088018 0.034866
v -0.084175 4.088018 0.034866
v -0.089359 -4.088018 0.017775
v -0.089359 4.088018 0.017775
v -0.091110 -4.088018 -0.000000
v -0.091110 4.088018 -0.000000
v -0.089359 -4.088018 -0.017775
v -0.089359 4.088018 -0.017775
v -0.084175 -4.088018 -0.034866
v -0.084175 4.088018 -0.034866
v -0.075755 -4.088018 -0.050618
v -0.075755 4.088018 -0.050618
v -0.064424 -4.088018 -0.064425
v -0.064424 4.088018 -0.064425
v -0.050618 -4.088018 -0.075755
v -0.050618 4.088018 -0.075755
v -0.034866 -4.088018 -0.084175
v -0.034866 4.088018 -0.084175
v -0.017775 -4.088018 -0.089359
v -0.017775 4.088018 -0.089359
vn 0.0980 0.0000 -0.9952
vn 0.2903 0.0000 -0.9569
vn 0.4714 0.0000 -0.8819
vn 0.6344 0.0000 -0.7730
vn 0.7730 0.0000 -0.6344
vn 0.8819 0.0000 -0.4714
vn 0.9569 0.0000 -0.2903
vn 0.9952 0.0000 -0.0980
vn 0.9952 0.0000 0.0980
vn 0.9569 0.0000 0.2903
vn 0.8819 0.0000 0.4714
vn 0.7730 0.0000 0.6344
vn 0.6344 0.0000 0.7730
vn 0.4714 0.0000 0.8819
vn 0.2903 0.0000 0.9569
vn 0.0980 0.0000 0.9952
vn -0.0980 0.0000 0.9952
vn -0.2903 0.0000 0.9569
vn -0.4714 0.0000 0.8819
vn -0.6344 0.0000 0.7730
vn -0.7730 0.0000 0.6344
vn -0.8819 0.0000 0.4714
vn -0.9569 0.0000 0.2903
vn -0.9952 0.0000 0.0980
vn -0.9952 0.0000 -0.0980
vn -0.9569 0.0000 -0.2903
vn -0.8819 0.0000 -0.4714
vn -0.7730 0.0000 -0.6344
vn -0.6344 0.0000 -0.7730
vn -0.4714 0.0000 -0.8819
vn 0.0000 1.0000 0.0000
vn -0.0980 0.0000 -0.9952
vn -0.2903 0.0000 -0.9569
vn 0.0000 -1.0000 0.0000
usemtl Material.002
s off
f 65//35 66//35 68//35 67//35
f 67//36 68//36 70//36 69//36
f 69//37 70//37 72//37 71//37
f 71//38 72//38 74//38 73//38
f 73//39 74//39 76//39 75//39
f 75//40 76//40 78//40 77//40
f 77//41 78//41 80//41 79//41
f 79//42 80//42 82//42 81//42
f 81//43 82//43 84//43 83//43
f 83//44 84//44 86//44 85//44
f 85//45 86//45 88//45 87//45
f 87//46 88//46 90//46 89//46
f 89//47 90//47 92//47 91//47
f 91//48 92//48 94//48 93//48
f 93//49 94//49 96//49 95//49
f 95//50 96//50 98//50 97//50
f 97//51 98//51 100//51 99//51
f 99//52 100//52 102//52 101//52
f 101//53 102//53 104//53 103//53
f 103//54 104//54 106//54 105//54
f 105//55 106//55 108//55 107//55
f 107//56 108//56 110//56 109//56
f 109//57 110//57 112//57 111//57
f 111//58 112//58 114//58 113//58
f 113//59 114//59 116//59 115//59
f 115//60 116//60 118//60 117//60
f 117//61 118//61 120//61 119//61
f 119//62 120//62 122//62 121//62
f 121//63 122//63 124//63 123//63
f 123//64 124//64 126//64 125//64
f 68//65 66//65 128//65 126//65 124//65 122//65 120//65 118//65 116//65 114//65 112//65 110//65 108//65 106//65 104//65 102//65 100//65 98//65 96//65 94//65 92//65 90//65 88//65 86//65 84//65 82//65 80//65 78//65 76//65 74//65 72//65 70//65
f 127//66 128//66 66//66 65//66
f 125//67 126//67 128//67 127//67
f 65//68 67//68 69//68 71//68 73//68 75//68 77//68 79//68 81//68 83//68 85//68 87//68 89//68 91//68 93//68 95//68 97//68 99//68 101//68 103//68 105//68 107//68 109//68 111//68 113//68 115//68 117//68 119//68 121//68 123//68 125//68 127//68
