# This file uses centimeters as units for non-parametric coordinates.

mtllib golf course plane.mtl
g default
v -5.867424 -0.279157 -4.776970
v -4.472319 -0.279157 -7.363441
v -1.865129 -0.279157 -8.682575
v 1.228967 -0.279157 -8.675669
v 3.601337 -0.279157 -7.249484
v 4.948097 -0.279157 -4.656107
v 4.941191 -0.279157 -1.952227
v 4.039898 -0.279157 0.275107
v 3.283640 -0.279157 2.298701
v 3.276733 -0.279157 4.715964
v 3.836157 -0.279157 7.758260
v 3.083352 -0.279157 10.848901
v 0.445083 -0.279157 12.534082
v -3.646996 -0.279157 12.333795
v -6.865409 -0.279157 9.419264
v -7.093322 -0.279157 4.930064
v -5.774187 -0.279157 1.625321
v -6.112604 -0.279157 -1.751940
v -5.867424 -0.977050 -4.776970
v -4.472318 -0.977050 -7.363442
v -1.865129 -0.977050 -8.682576
v 1.228967 -0.977050 -8.675670
v 3.601337 -0.977050 -7.249484
v 4.948097 -0.977050 -4.656108
v 4.941191 -0.977050 -1.952227
v 4.039897 -0.977051 0.275107
v 3.283640 -0.977051 2.298701
v 3.276733 -0.977051 4.715963
v 3.836157 -0.977051 7.758260
v 3.083352 -0.977051 10.848903
v 0.445083 -0.977051 12.534080
v -3.646996 -0.977051 12.333793
v -6.865409 -0.977051 9.419265
v -7.093323 -0.977051 4.930064
v -5.774187 -0.977051 1.625321
v -6.112604 -0.977051 -1.751940
v -2.922298 -0.157026 -6.808910
v -4.623878 -0.157026 -5.060710
v -5.073661 -0.628104 -8.554517
v -6.596536 -0.628104 -5.516537
v -2.082299 -0.628104 -9.999696
v 1.522875 -0.628104 -10.015235
v 4.172367 -0.628104 -8.406892
v 5.741861 -0.628104 -5.384451
v 5.695243 -0.628104 -2.299852
v 4.584165 -0.628104 0.178705
v 3.706181 -0.628104 2.400859
v 3.659562 -0.628104 5.104740
v 4.514236 -0.628104 8.546748
v 3.659562 -0.628104 12.190769
v 0.707049 -0.628104 14.055515
v -4.102439 -0.628104 13.946740
v -7.925166 -0.628104 10.621278
v -8.096101 -0.628104 5.182437
v -6.153658 -0.628104 1.771508
v -6.946176 -0.628104 -2.191076
v -4.623878 -1.099182 -5.060711
v -2.922298 -1.099182 -6.808910
v -0.311654 -1.099182 -7.345024
v 2.112514 -1.099182 -6.762291
v 3.720856 -1.099182 -4.944164
v 4.303589 -1.099182 -2.543305
v 3.767475 -1.099182 -0.445467
v 2.928340 -1.099182 1.256113
v 2.532082 -1.099182 3.050930
v 2.974958 -1.099182 5.358552
v 3.138123 -1.099182 8.155670
v 1.716256 -1.099182 10.323435
v -1.337264 -1.099182 11.046025
v -4.880280 -1.099182 9.810632
v -6.465312 -1.099182 6.197688
v -5.393085 -1.099182 2.817837
v -4.926899 -1.099182 0.160575
v -5.346467 -1.099182 -2.636542
v -5.346466 -0.157026 -2.636542
v -4.926899 -0.157026 0.160575
v -5.393084 -0.157026 2.817838
v -6.465312 -0.157026 6.197688
v -4.880280 -0.157026 9.810632
v -1.337264 -0.157026 11.046026
v 1.716256 -0.157026 10.323435
v 3.138124 -0.157026 8.155670
v 2.974958 -0.157026 5.358552
v 2.532082 -0.157026 3.050931
v 2.928340 -0.157026 1.256113
v 3.767475 -0.157026 -0.445467
v 4.303589 -0.157026 -2.543305
v 3.720856 -0.157026 -4.944164
v 2.112514 -0.157026 -6.762291
v -0.311654 -0.157026 -7.345024
v -0.500718 -1.256208 1.201724
v -0.500719 0.000000 1.201724
v -5.998263 -0.628104 -7.148189
v -3.729490 -0.628104 -9.479121
v -0.248633 -0.628104 -10.193939
v 2.983592 -0.628104 -9.416963
v 5.128049 -0.628104 -6.992794
v 5.905026 -0.628104 -3.791648
v 5.190207 -0.628104 -0.994531
v 4.071360 -0.628104 1.274242
v 3.543015 -0.628104 3.667332
v 4.133518 -0.628104 6.744161
v 4.351072 -0.628104 10.473651
v 2.455248 -0.628104 13.364007
v -1.616112 -0.628104 14.327458
v -6.340133 -0.628104 12.680266
v -8.453511 -0.628104 7.863009
v -7.023873 -0.628104 3.356541
v -6.402291 -0.628104 -0.186475
v -6.961715 -0.628104 -3.915965
vt 0.692185 0.000000
vt 0.692185 0.000000
vt 0.836232 0.000000
vt 0.836232 0.000000
vt 0.936176 0.092521
vt 0.936176 0.092521
vt 1.000000 0.233332
vt 1.000000 0.233332
vt 0.982221 0.355198
vt 0.982221 0.355198
vt 0.890088 0.468563
vt 0.890088 0.468563
vt 0.771458 0.514607
vt 0.771458 0.514607
vt 0.661416 0.505286
vt 0.661416 0.505286
vt 0.568765 0.504725
vt 0.568765 0.504725
vt 0.468433 0.542830
vt 0.468433 0.542830
vt 0.361196 0.646442
vt 0.361196 0.646442
vt 0.200924 0.677944
vt 0.200924 0.677944
vt 0.087947 0.599232
vt 0.087947 0.599232
vt 0.000000 0.409097
vt 0.000000 0.409097
vt 0.058301 0.198982
vt 0.058301 0.198982
vt 0.287015 0.099728
vt 0.287015 0.099728
vt 0.435593 0.160273
vt 0.435593 0.160273
vt 0.567600 0.032322
vt 0.567600 0.032322
vt 0.679047 0.042678
vt 0.796495 0.052711
vt 0.886664 0.127580
vt 0.935816 0.241539
vt 0.921221 0.351605
vt 0.847301 0.442571
vt 0.747700 0.485492
vt 0.651352 0.487894
vt 0.564817 0.492380
vt 0.475762 0.530724
vt 0.372752 0.599887
vt 0.247009 0.621539
vt 0.142875 0.551371
vt 0.084903 0.397602
vt 0.140753 0.232640
vt 0.302296 0.152571
vt 0.444960 0.148339
vt 0.563825 0.081959
vt 0.544753 0.335616
vt 0.544753 0.335616
vt 0.764208 0.000000
vt 0.886204 0.046261
vt 0.968088 0.162927
vt 0.991110 0.294265
vt 0.936154 0.411880
vt 0.830773 0.491585
vt 0.716437 0.509947
vt 0.615091 0.505006
vt 0.518599 0.523778
vt 0.414815 0.594636
vt 0.281060 0.662193
vt 0.144435 0.638588
vt 0.043974 0.504164
vt 0.029150 0.304039
vt 0.172658 0.149355
vt 0.361304 0.130000
vt 0.501597 0.096297
vt 0.629892 0.016161
vt 0.709344 0.083904
vt 0.800841 0.118599
vt 0.862254 0.206099
vt 0.879521 0.304603
vt 0.838304 0.392814
vt 0.759268 0.452593
vt 0.673516 0.466364
vt 0.597506 0.462658
vt 0.525138 0.476737
vt 0.447299 0.529881
vt 0.346983 0.580549
vt 0.244515 0.562845
vt 0.169168 0.462027
vt 0.158051 0.311933
vt 0.265682 0.195920
vt 0.407166 0.181404
vt 0.512386 0.156127
vt 0.608608 0.096025
vt 0.629892 0.016161
vt 0.629892 0.016161
vt 0.501597 0.096297
vt 0.501597 0.096297
vt 0.361304 0.130000
vt 0.361304 0.130000
vt 0.172658 0.149355
vt 0.172658 0.149355
vt 0.029150 0.304039
vt 0.029150 0.304039
vt 0.043974 0.504164
vt 0.043974 0.504164
vt 0.144435 0.638588
vt 0.144435 0.638588
vt 0.281060 0.662193
vt 0.281060 0.662193
vt 0.414815 0.594636
vt 0.414815 0.594636
vt 0.518599 0.523778
vt 0.518599 0.523778
vt 0.615091 0.505006
vt 0.615091 0.505006
vt 0.716437 0.509947
vt 0.716437 0.509947
vt 0.830773 0.491585
vt 0.830773 0.491585
vt 0.936154 0.411880
vt 0.936154 0.411880
vt 0.991110 0.294265
vt 0.991110 0.294265
vt 0.968088 0.162927
vt 0.968088 0.162927
vt 0.886204 0.046261
vt 0.886204 0.046261
vt 0.764208 0.000000
vt 0.764208 0.000000
vt 0.830719 0.011565
vt 0.694618 0.004040
vt 0.931661 0.098558
vt 0.989799 0.230964
vt 0.972926 0.354135
vt 0.886775 0.460148
vt 0.772532 0.507687
vt 0.663590 0.506381
vt 0.567805 0.509559
vt 0.467570 0.551018
vt 0.354567 0.637428
vt 0.206836 0.664167
vt 0.091076 0.585304
vt 0.018281 0.406599
vt 0.079602 0.212839
vt 0.276998 0.119703
vt 0.433522 0.136711
vt 0.566672 0.044276
vn -0.139601 -0.989462 -0.038418
vn -0.047126 -0.998497 -0.027992
vn -0.003635 -0.999993 0.001092
vn -0.075334 -0.997126 -0.008031
vn -0.088565 -0.992571 -0.083416
vn -0.019812 -0.999034 -0.039236
vn -0.021352 -0.994417 -0.103338
vn 0.000346 -0.999082 -0.042831
vn 0.025125 -0.994182 -0.104738
vn 0.021706 -0.999067 -0.037336
vn 0.094518 -0.992259 -0.080555
vn 0.048796 -0.998440 -0.027158
vn 0.146353 -0.988716 -0.031959
vn 0.075363 -0.997153 -0.002525
vn 0.202394 -0.977586 0.057979
vn 0.102653 -0.994056 0.036273
vn 0.210517 -0.971524 0.108740
vn 0.111878 -0.992965 0.038771
vn 0.209207 -0.976783 0.046129
vn 0.127498 -0.991835 0.002758
vn 0.253665 -0.965963 -0.050698
vn 0.128124 -0.991611 -0.017083
vn 0.232285 -0.972394 -0.022231
vn 0.065963 -0.997640 0.019061
vn 0.113299 -0.991071 0.070291
vn 0.020999 -0.999212 0.033693
vn 0.021359 -0.995717 0.089949
vn -0.002255 -0.999232 0.039130
vn -0.028505 -0.996326 0.080760
vn -0.029096 -0.999038 0.032824
vn -0.095784 -0.994643 0.038878
vn -0.066002 -0.997804 0.005505
vn -0.151640 -0.986977 -0.053679
vn -0.084367 -0.996062 -0.027271
vn -0.155844 -0.987459 -0.025266
vn -0.093108 -0.995645 0.004716
vn -0.170603 -0.984841 0.031344
vn -0.139601 0.989462 -0.038418
vn -0.075334 0.997126 -0.008031
vn -0.003635 0.999993 0.001092
vn -0.047126 0.998497 -0.027992
vn -0.170603 0.984841 0.031344
vn -0.093108 0.995645 0.004716
vn -0.155844 0.987459 -0.025266
vn -0.084367 0.996062 -0.027271
vn -0.151640 0.986977 -0.053679
vn -0.066002 0.997804 0.005505
vn -0.095784 0.994643 0.038878
vn -0.029096 0.999038 0.032824
vn -0.028505 0.996326 0.080760
vn -0.002255 0.999232 0.039130
vn 0.021359 0.995717 0.089949
vn 0.020999 0.999212 0.033693
vn 0.113299 0.991071 0.070291
vn 0.065963 0.997640 0.019061
vn 0.232285 0.972394 -0.022231
vn 0.128124 0.991611 -0.017083
vn 0.253666 0.965963 -0.050698
vn 0.127498 0.991835 0.002758
vn 0.209207 0.976783 0.046129
vn 0.111878 0.992965 0.038771
vn 0.210517 0.971524 0.108740
vn 0.102653 0.994056 0.036273
vn 0.202394 0.977586 0.057979
vn 0.075363 0.997153 -0.002525
vn 0.146353 0.988716 -0.031959
vn 0.048796 0.998439 -0.027158
vn 0.094518 0.992259 -0.080555
vn 0.021706 0.999067 -0.037336
vn 0.025125 0.994182 -0.104738
vn 0.000346 0.999082 -0.042831
vn -0.021352 0.994417 -0.103338
vn -0.019812 0.999034 -0.039236
vn -0.088565 0.992571 -0.083417
vn -0.900042 -0.000001 -0.435803
vn -0.929142 0.000000 -0.369723
vn -0.640080 0.000001 -0.768308
vn -0.455026 0.000001 -0.890478
vn -0.190751 0.000001 -0.981638
vn -0.003443 0.000001 -0.999994
vn 0.225480 0.000000 -0.974248
vn 0.532695 0.000000 -0.846307
vn 0.675347 -0.000001 -0.737500
vn 0.900228 0.000000 -0.435418
vn 0.939337 0.000001 -0.342994
vn 0.999745 0.000001 0.022562
vn 0.991435 -0.000000 0.130599
vn 0.905596 -0.000000 0.424142
vn 0.918836 -0.000001 0.394639
vn 0.914621 -0.000001 0.404313
vn 0.976290 -0.000000 0.216467
vn 0.997715 0.000000 -0.067560
vn 0.985061 -0.000001 -0.172206
vn 0.972299 -0.000001 -0.233742
vn 0.995512 0.000001 0.094635
vn 0.969310 -0.000000 0.245842
vn 0.720356 0.000001 0.693604
vn 0.546888 0.000000 0.837206
vn 0.210832 -0.000002 0.977522
vn -0.032988 -0.000003 0.999456
vn -0.314203 -0.000002 0.949356
vn -0.659778 0.000000 0.751461
vn -0.862314 -0.000000 0.506373
vn -0.997325 -0.000001 0.073095
vn -0.980264 0.000000 -0.197695
vn -0.874279 0.000001 -0.485424
vn -0.980828 0.000000 -0.194877
vn -0.979815 0.000001 0.199906
vn -0.999100 0.000001 0.042425
vn -0.997007 0.000000 -0.077312
s 1
g polySurface1
usemtl initialShadingGroup
f 19/37/1 57/75/2 91/55/3 74/92/4
f 20/38/5 58/76/6 91/55/3 57/75/2
f 21/39/7 59/77/8 91/55/3 58/76/6
f 22/40/9 60/78/10 91/55/3 59/77/8
f 23/41/11 61/79/12 91/55/3 60/78/10
f 24/42/13 62/80/14 91/55/3 61/79/12
f 25/43/15 63/81/16 91/55/3 62/80/14
f 26/44/17 64/82/18 91/55/3 63/81/16
f 27/45/19 65/83/20 91/55/3 64/82/18
f 28/46/21 66/84/22 91/55/3 65/83/20
f 29/47/23 67/85/24 91/55/3 66/84/22
f 30/48/25 68/86/26 91/55/3 67/85/24
f 31/49/27 69/87/28 91/55/3 68/86/26
f 32/50/29 70/88/30 91/55/3 69/87/28
f 33/51/31 71/89/32 91/55/3 70/88/30
f 34/52/33 72/90/34 91/55/3 71/89/32
f 35/53/35 73/91/36 91/55/3 72/90/34
f 36/54/37 74/92/4 91/55/3 73/91/36
f 1/1/38 75/93/39 92/56/40 38/127/41
f 18/35/42 76/95/43 92/56/40 75/93/39
f 17/33/44 77/97/45 92/56/40 76/95/43
f 16/31/46 78/99/47 92/56/40 77/97/45
f 15/29/48 79/101/49 92/56/40 78/99/47
f 14/27/50 80/103/51 92/56/40 79/101/49
f 13/25/52 81/105/53 92/56/40 80/103/51
f 12/23/54 82/107/55 92/56/40 81/105/53
f 11/21/56 83/109/57 92/56/40 82/107/55
f 10/19/58 84/111/59 92/56/40 83/109/57
f 9/17/60 85/113/61 92/56/40 84/111/59
f 8/15/62 86/115/63 92/56/40 85/113/61
f 7/13/64 87/117/65 92/56/40 86/115/63
f 6/11/66 88/119/67 92/56/40 87/117/65
f 5/9/68 89/121/69 92/56/40 88/119/67
f 4/7/70 90/123/71 92/56/40 89/121/69
f 3/5/72 37/125/73 92/56/40 90/123/71
f 2/3/74 38/127/41 92/56/40 37/125/73
f 1/2/38 38/128/41 93/57/75 40/130/76
f 38/128/41 2/4/74 39/129/77 93/57/75
f 93/57/75 39/129/77 20/38/5 57/75/2
f 40/130/76 93/57/75 57/75/2 19/37/1
f 2/4/74 37/126/73 94/58/78 39/129/77
f 37/126/73 3/6/72 41/131/79 94/58/78
f 94/58/78 41/131/79 21/39/7 58/76/6
f 39/129/77 94/58/78 58/76/6 20/38/5
f 3/6/72 90/124/71 95/59/80 41/131/79
f 90/124/71 4/8/70 42/132/81 95/59/80
f 95/59/80 42/132/81 22/40/9 59/77/8
f 41/131/79 95/59/80 59/77/8 21/39/7
f 4/8/70 89/122/69 96/60/82 42/132/81
f 89/122/69 5/10/68 43/133/83 96/60/82
f 96/60/82 43/133/83 23/41/11 60/78/10
f 42/132/81 96/60/82 60/78/10 22/40/9
f 5/10/68 88/120/67 97/61/84 43/133/83
f 88/120/67 6/12/66 44/134/85 97/61/84
f 97/61/84 44/134/85 24/42/13 61/79/12
f 43/133/83 97/61/84 61/79/12 23/41/11
f 6/12/66 87/118/65 98/62/86 44/134/85
f 87/118/65 7/14/64 45/135/87 98/62/86
f 98/62/86 45/135/87 25/43/15 62/80/14
f 44/134/85 98/62/86 62/80/14 24/42/13
f 7/14/64 86/116/63 99/63/88 45/135/87
f 86/116/63 8/16/62 46/136/89 99/63/88
f 99/63/88 46/136/89 26/44/17 63/81/16
f 45/135/87 99/63/88 63/81/16 25/43/15
f 8/16/62 85/114/61 100/64/90 46/136/89
f 85/114/61 9/18/60 47/137/91 100/64/90
f 100/64/90 47/137/91 27/45/19 64/82/18
f 46/136/89 100/64/90 64/82/18 26/44/17
f 9/18/60 84/112/59 101/65/92 47/137/91
f 84/112/59 10/20/58 48/138/93 101/65/92
f 101/65/92 48/138/93 28/46/21 65/83/20
f 47/137/91 101/65/92 65/83/20 27/45/19
f 10/20/58 83/110/57 102/66/94 48/138/93
f 83/110/57 11/22/56 49/139/95 102/66/94
f 102/66/94 49/139/95 29/47/23 66/84/22
f 48/138/93 102/66/94 66/84/22 28/46/21
f 11/22/56 82/108/55 103/67/96 49/139/95
f 82/108/55 12/24/54 50/140/97 103/67/96
f 103/67/96 50/140/97 30/48/25 67/85/24
f 49/139/95 103/67/96 67/85/24 29/47/23
f 12/24/54 81/106/53 104/68/98 50/140/97
f 81/106/53 13/26/52 51/141/99 104/68/98
f 104/68/98 51/141/99 31/49/27 68/86/26
f 50/140/97 104/68/98 68/86/26 30/48/25
f 13/26/52 80/104/51 105/69/100 51/141/99
f 80/104/51 14/28/50 52/142/101 105/69/100
f 105/69/100 52/142/101 32/50/29 69/87/28
f 51/141/99 105/69/100 69/87/28 31/49/27
f 14/28/50 79/102/49 106/70/102 52/142/101
f 79/102/49 15/30/48 53/143/103 106/70/102
f 106/70/102 53/143/103 33/51/31 70/88/30
f 52/142/101 106/70/102 70/88/30 32/50/29
f 15/30/48 78/100/47 107/71/104 53/143/103
f 78/100/47 16/32/46 54/144/105 107/71/104
f 107/71/104 54/144/105 34/52/33 71/89/32
f 53/143/103 107/71/104 71/89/32 33/51/31
f 16/32/46 77/98/45 108/72/106 54/144/105
f 77/98/45 17/34/44 55/145/107 108/72/106
f 108/72/106 55/145/107 35/53/35 72/90/34
f 54/144/105 108/72/106 72/90/34 34/52/33
f 17/34/44 76/96/43 109/73/108 55/145/107
f 76/96/43 18/36/42 56/146/109 109/73/108
f 109/73/108 56/146/109 36/54/37 73/91/36
f 55/145/107 109/73/108 73/91/36 35/53/35
f 18/36/42 75/94/39 110/74/110 56/146/109
f 75/94/39 1/2/38 40/130/76 110/74/110
f 110/74/110 40/130/76 19/37/1 74/92/4
f 56/146/109 110/74/110 74/92/4 36/54/37
