# This file uses centimeters as units for non-parametric coordinates.

mtllib Level 2 wood UV mapped.mtl
g default
v -40.772202 1.960752 -111.555000
v -40.772202 1.960752 -35.054501
v -42.272202 1.960752 -35.054501
v -42.272202 1.960752 -113.055000
v -40.772202 3.267920 -35.054501
v -40.772202 6.535840 -111.555000
v -40.772202 6.535840 -47.054501
v -42.272202 3.267920 -35.054501
v -42.272202 6.535840 -47.054501
v -42.272202 6.535840 -113.055000
v -42.272202 6.535840 -113.055000
v -3.272202 6.535840 -113.055000
v -3.272202 1.960752 -113.055000
v -42.272202 1.960752 -113.055000
v -40.772202 6.535840 -111.555000
v -4.772202 6.535840 -111.555000
v -40.772202 1.960752 -111.555000
v -4.772202 1.960752 -111.555000
v -3.272202 6.535840 -113.055000
v -3.272202 6.535840 -47.054501
v -3.272202 3.267920 -35.054501
v -3.272202 1.960752 -35.054501
v -3.272202 1.960752 -113.055000
v -4.772202 6.535840 -111.555000
v -4.772202 6.535840 -47.054501
v -4.772202 1.960752 -111.555000
v -4.772202 1.960752 -35.054501
v -4.772202 3.267920 -35.054501
vt 0.043792 0.998008
vt 0.027100 0.998008
vt 0.027100 0.021146
vt 0.085521 0.021146
vt 0.085521 0.844776
vt 0.027100 0.001992
vt 0.085521 0.001992
vt 0.091481 0.998008
vt 0.091481 0.001992
vt 0.108173 0.001992
vt 0.149902 0.155224
vt 0.149902 0.998008
vt 0.240037 0.001992
vt 0.240037 0.844776
vt 0.198308 0.998008
vt 0.181616 0.998008
vt 0.181616 0.001992
vt 0.271750 0.978854
vt 0.271750 0.001992
vt 0.288442 0.001992
vt 0.330171 0.155224
vt 0.330171 0.978854
vt 0.271750 0.998008
vt 0.330171 0.998008
vt 0.020317 0.021146
vt 0.020317 0.998008
vt 0.001163 0.998008
vt 0.001163 0.001992
vt 0.155863 0.155224
vt 0.155863 0.001992
vt 0.175017 0.001992
vt 0.175017 0.155224
vt 0.155863 0.998008
vt 0.175017 0.978854
vt 0.426266 0.480843
vt 0.426266 0.021146
vt 0.445420 0.001992
vt 0.445420 0.499997
vt 0.516400 0.499997
vt 0.516400 0.001992
vt 0.535554 0.021146
vt 0.535554 0.480843
vt 0.245997 0.978854
vt 0.245997 0.155224
vt 0.265151 0.155224
vt 0.265151 0.998008
vt 0.245997 0.001992
vt 0.265151 0.001992
vt 0.355286 0.001992
vt 0.355286 0.998008
vt 0.336132 0.998008
vt 0.336132 0.021146
vt 0.558845 0.021146
vt 0.542153 0.021146
vt 0.542153 0.001992
vt 0.558845 0.001992
vt 0.361884 0.499997
vt 0.361884 0.001992
vt 0.420305 0.001992
vt 0.420305 0.499997
vt 0.510439 0.021146
vt 0.510439 0.480843
vt 0.452018 0.480843
vt 0.452018 0.021146
vt 0.452018 0.499997
vt 0.510439 0.499997
vt 0.452018 0.001992
vt 0.510439 0.001992
vt 0.582758 0.021146
vt 0.566066 0.021146
vt 0.566066 0.001992
vt 0.582758 0.001992
vn 0.000000 -1.000000 0.000000
vn 0.000000 -1.000000 0.000000
vn 0.000000 -1.000000 0.000000
vn 0.000000 -1.000000 0.000000
vn 1.000000 0.000000 0.000000
vn 1.000000 0.000000 0.000000
vn 1.000000 0.000000 0.000000
vn 1.000000 0.000000 0.000000
vn 1.000000 0.000000 0.000000
vn 0.000000 0.000000 1.000000
vn 0.000000 0.000000 1.000000
vn 0.000000 0.000000 1.000000
vn 0.000000 0.000000 1.000000
vn -1.000000 0.000000 0.000000
vn -1.000000 0.000000 0.000000
vn -1.000000 0.000000 0.000000
vn -1.000000 0.000000 0.000000
vn -1.000000 0.000000 0.000000
vn 0.000000 0.964862 0.262757
vn 0.000000 0.964862 0.262757
vn 0.000000 0.964862 0.262757
vn 0.000000 0.964862 0.262757
vn 0.000000 1.000000 0.000000
vn 0.000000 1.000000 0.000000
vn 0.000000 1.000000 0.000000
vn 0.000000 1.000000 0.000000
vn 0.707107 0.000000 -0.707107
vn 0.707107 0.000000 -0.707107
vn 0.707107 0.000000 -0.707107
vn 0.707107 0.000000 -0.707107
vn 0.000000 0.000000 -1.000000
vn 0.000000 0.000000 -1.000000
vn 0.000000 0.000000 -1.000000
vn 0.000000 0.000000 -1.000000
vn 0.000000 1.000000 0.000000
vn 0.000000 1.000000 0.000000
vn 0.000000 1.000000 0.000000
vn 0.000000 1.000000 0.000000
vn 0.000000 0.000000 1.000000
vn 0.000000 0.000000 1.000000
vn 0.000000 0.000000 1.000000
vn 0.000000 0.000000 1.000000
vn -0.707107 0.000000 0.707107
vn -0.707107 0.000000 0.707107
vn -0.707107 0.000000 0.707107
vn -0.707107 0.000000 0.707107
vn 0.000000 -1.000000 0.000000
vn 0.000000 -1.000000 0.000000
vn 0.000000 -1.000000 0.000000
vn 0.000000 -1.000000 0.000000
vn 0.707107 0.000000 0.707107
vn 0.707107 0.000000 0.707107
vn 0.707107 0.000000 0.707107
vn 0.707107 0.000000 0.707107
vn 1.000000 0.000000 0.000000
vn 1.000000 0.000000 0.000000
vn 1.000000 0.000000 0.000000
vn 1.000000 0.000000 0.000000
vn 1.000000 0.000000 0.000000
vn 0.000000 1.000000 0.000000
vn 0.000000 1.000000 0.000000
vn 0.000000 1.000000 0.000000
vn 0.000000 1.000000 0.000000
vn -1.000000 0.000000 0.000000
vn -1.000000 0.000000 0.000000
vn -1.000000 0.000000 0.000000
vn -1.000000 0.000000 0.000000
vn -1.000000 0.000000 0.000000
vn 0.000000 -1.000000 0.000000
vn 0.000000 -1.000000 0.000000
vn 0.000000 -1.000000 0.000000
vn 0.000000 -1.000000 0.000000
vn 0.000000 0.000000 1.000000
vn 0.000000 0.000000 1.000000
vn 0.000000 0.000000 1.000000
vn 0.000000 0.000000 1.000000
vn 0.000000 0.964862 0.262757
vn 0.000000 0.964862 0.262757
vn 0.000000 0.964862 0.262757
vn 0.000000 0.964862 0.262757
vn -0.707107 0.000000 -0.707107
vn -0.707107 0.000000 -0.707107
vn -0.707107 0.000000 -0.707107
vn -0.707107 0.000000 -0.707107
s off
g Box_level_2:Mesh9Component_18_1Model1
usemtl initialShadingGroup
f 1/25/1 2/26/2 3/27/3 4/28/4
f 5/1/5 2/2/6 1/3/7 6/4/8 7/5/9
f 8/53/10 3/54/11 2/55/12 5/56/13
f 4/8/14 3/9/15 8/10/16 9/11/17 10/12/18
f 9/29/19 8/30/20 5/31/21 7/32/22
f 10/33/23 9/29/24 7/32/25 6/34/26
f 1/3/27 4/6/28 10/7/29 6/4/30
f 11/57/31 12/58/32 13/59/33 14/60/34
f 15/35/35 16/36/36 12/37/37 11/38/38
f 16/61/39 15/62/40 17/63/41 18/64/42
f 14/65/43 17/63/44 15/62/45 11/66/46
f 14/39/47 13/40/48 18/41/49 17/42/50
f 18/64/51 13/67/52 12/68/53 16/61/54
f 19/13/55 20/14/56 21/15/57 22/16/58 23/17/59
f 24/43/60 25/44/61 20/45/62 19/46/63
f 26/18/64 27/19/65 28/20/66 25/21/67 24/22/68
f 23/49/69 22/50/70 27/51/71 26/52/72
f 28/69/73 27/70/74 22/71/75 21/72/76
f 25/44/77 28/47/78 21/48/79 20/45/80
f 23/23/81 26/18/82 24/22/83 19/24/84
